<?xml version="1.0" encoding="utf-8"?>
<!-- Generator: Adobe Illustrator 25.4.1, SVG Export Plug-In . SVG Version: 6.00 Build 0)  -->
<svg version="1.1" id="Lager_1" xmlns="http://www.w3.org/2000/svg" xmlns:xlink="http://www.w3.org/1999/xlink" x="0px" y="0px"
	 viewBox="0 0 267.8 542.4" style="enable-background:new 0 0 267.8 542.4;" xml:space="preserve">
<style type="text/css">
	.st0{fill:#F3C933;}
	.st1{fill:#FFFFFF;}
	.st2{fill:none;stroke:#000000;stroke-width:4;stroke-miterlimit:10;}
</style>
<g id="XMLID_00000121985956423073952010000015520750330701451394_">
	<g>
		<polygon class="st0" points="11.6,5.7 112.1,37 112.1,90.2 11.7,58.8 		"/>
		<polygon class="st1" points="124,5.7 144.1,11.1 144.1,542.4 124,537 		"/>
		<polygon class="st0" points="156,47.9 256.4,80.2 256.5,107.3 156,116.1 		"/>
		<polygon class="st0" points="11.7,107.3 112.1,105.8 112.1,173.9 11.7,141.9 		"/>
		<polygon class="st0" points="156,116.1 256.5,107.3 256.5,107.8 156,116.5 		"/>
		<polygon class="st0" points="156,131.7 256.5,163 256.5,216.2 156,184.8 		"/>
		<polygon class="st0" points="11.6,168.3 112.1,199.6 112.1,335.8 11.7,304.6 		"/>
		<polygon class="st0" points="156,293.5 256.5,324.9 256.5,378.1 156,346.7 		"/>
		<polygon class="st0" points="11.6,328.8 112.1,360.1 112.1,496.3 11.7,465.1 11.6,417.6 61.9,434.5 61.9,391 11.6,374.2 		"/>
		<polygon class="st0" points="156,375 256.5,406.2 256.5,453.7 206.2,436.8 206.2,480.3 256.5,497.1 256.5,542.4 156,511.2 		"/>
	</g>
	<g>
		<polygon class="st2" points="144.1,11.1 144.1,542.4 124,537 124,5.7 		"/>
		<polygon class="st2" points="11.6,374.2 61.9,391 61.9,434.5 11.6,417.6 11.7,465.1 112.1,496.3 112.1,360.1 11.6,328.8 		"/>
		<polygon class="st2" points="112.1,199.6 112.1,335.8 11.7,304.6 11.6,168.3 		"/>
		<polygon class="st2" points="256.5,324.9 256.5,378.1 156,346.7 156,293.5 		"/>
		<polygon class="st2" points="156,116.1 156,47.9 256.4,80.2 256.5,107.3 256.5,107.8 156,116.5 		"/>
		<polygon class="st2" points="256.5,163 256.5,216.2 156,184.8 156,131.7 		"/>
		<polygon class="st2" points="112.1,37 112.1,90.2 11.7,58.8 11.6,5.7 		"/>
		<polygon class="st2" points="112.1,105.8 112.1,173.9 11.7,141.9 11.7,107.3 		"/>
		<line class="st2" x1="11.7" y1="107.3" x2="11.6" y2="107.3"/>
		<line class="st2" x1="256.5" y1="107.3" x2="156" y2="116.1"/>
		<polygon class="st2" points="256.5,497.1 206.2,480.3 206.2,436.8 256.5,453.7 256.5,406.2 156,375 156,511.2 256.5,542.4 		"/>
	</g>
</g>
</svg>
