<?xml version="1.0" encoding="utf-8"?>
<!-- Generator: Adobe Illustrator 25.4.1, SVG Export Plug-In . SVG Version: 6.00 Build 0)  -->
<svg version="1.1" id="Lager_1" xmlns="http://www.w3.org/2000/svg" xmlns:xlink="http://www.w3.org/1999/xlink" x="0px" y="0px"
	 viewBox="0 0 595.3 277" style="enable-background:new 0 0 595.3 277;" xml:space="preserve">
<style type="text/css">
	.st0{fill:#F3C933;}
	.st1{fill:#FFFFFF;}
	.st2{fill:none;stroke:#000000;stroke-width:4;stroke-miterlimit:10;}
</style>
<g id="XMLID_00000121985956423073952010000015520750330701451394_">
	<g>
		<polygon class="st0" points="566,20.6 534.7,121.1 481.5,121.1 512.9,20.7 		"/>
		<polygon class="st1" points="566,133 560.6,153.1 29.3,153.1 34.7,133 		"/>
		<polygon class="st0" points="523.8,165 491.5,265.4 464.4,265.5 455.6,165 		"/>
		<polygon class="st0" points="464.4,20.7 465.9,121.1 397.8,121.1 429.8,20.7 		"/>
		<polygon class="st0" points="455.6,165 464.4,265.5 463.9,265.5 455.2,165 		"/>
		<polygon class="st0" points="440,165 408.7,265.5 355.5,265.5 386.9,165 		"/>
		<polygon class="st0" points="403.4,20.6 372.1,121.1 235.9,121.1 267.1,20.7 		"/>
		<polygon class="st0" points="278.2,165 246.8,265.5 193.6,265.5 225,165 		"/>
		<polygon class="st0" points="242.9,20.6 211.6,121.1 75.4,121.1 106.6,20.7 154.1,20.6 137.2,70.9 180.7,70.9 197.5,20.6 		"/>
		<polygon class="st0" points="196.7,165 165.5,265.5 118,265.5 134.9,215.2 91.4,215.2 74.6,265.5 29.3,265.5 60.5,165 		"/>
	</g>
	<g>
		<polygon class="st2" points="560.6,153.1 29.3,153.1 34.7,133 566,133 		"/>
		<polygon class="st2" points="197.5,20.6 180.7,70.9 137.2,70.9 154.1,20.6 106.6,20.7 75.4,121.1 211.6,121.1 242.9,20.6 		"/>
		<polygon class="st2" points="372.1,121.1 235.9,121.1 267.1,20.7 403.4,20.6 		"/>
		<polygon class="st2" points="246.8,265.5 193.6,265.5 225,165 278.2,165 		"/>
		<polygon class="st2" points="455.6,165 523.8,165 491.5,265.4 464.4,265.5 463.9,265.5 455.2,165 		"/>
		<polygon class="st2" points="408.7,265.5 355.5,265.5 386.9,165 440,165 		"/>
		<polygon class="st2" points="534.7,121.1 481.5,121.1 512.9,20.7 566,20.6 		"/>
		<polygon class="st2" points="465.9,121.1 397.8,121.1 429.8,20.7 464.4,20.7 		"/>
		<line class="st2" x1="464.4" y1="20.7" x2="464.4" y2="20.6"/>
		<line class="st2" x1="464.4" y1="265.5" x2="455.6" y2="165"/>
		<polygon class="st2" points="74.6,265.5 91.4,215.2 134.9,215.2 118,265.5 165.5,265.5 196.7,165 60.5,165 29.3,265.5 		"/>
	</g>
</g>
</svg>
