<?xml version="1.0" encoding="utf-8"?>
<!-- Generator: Adobe Illustrator 25.4.1, SVG Export Plug-In . SVG Version: 6.00 Build 0)  -->
<svg version="1.1" id="Lager_1" xmlns="http://www.w3.org/2000/svg" xmlns:xlink="http://www.w3.org/1999/xlink" x="0px" y="0px"
	 viewBox="0 0 595.28 841.89" style="enable-background:new 0 0 595.28 841.89;" xml:space="preserve">
<style type="text/css">
	.st0{fill:#F3C933;}
	.st1{fill:#FFFFFF;}
	.st2{fill:none;stroke:#000000;stroke-width:4;stroke-miterlimit:10;}
</style>
<g id="XMLID_00000121985956423073952010000015520750330701451394_">
	<g>
		<polygon class="st0" points="566.02,298.53 534.67,398.98 481.52,399.01 512.87,298.58 		"/>
		<polygon class="st1" points="566.02,410.9 560.61,431 29.27,431 34.68,410.9 		"/>
		<polygon class="st0" points="523.77,442.89 491.53,543.32 464.35,543.34 455.64,442.94 		"/>
		<polygon class="st0" points="464.35,298.55 465.91,398.96 397.78,399.01 429.79,298.58 		"/>
		<polygon class="st0" points="455.64,442.94 464.35,543.34 463.93,543.34 455.16,442.94 		"/>
		<polygon class="st0" points="440.03,442.89 408.68,543.34 355.53,543.37 386.88,442.92 		"/>
		<polygon class="st0" points="403.38,298.5 372.14,398.98 235.91,399.03 267.14,298.55 		"/>
		<polygon class="st0" points="278.16,442.89 246.81,543.34 193.65,543.37 225,442.92 		"/>
		<polygon class="st0" points="242.86,298.5 211.62,398.98 75.39,399.03 106.62,298.55 154.08,298.53 137.23,348.79 180.69,348.76 
			197.52,298.52 		"/>
		<polygon class="st0" points="196.74,442.86 165.5,543.34 118.04,543.35 134.89,493.1 91.43,493.13 74.6,543.37 29.27,543.39 
			60.5,442.91 		"/>
	</g>
	<g>
		<polygon class="st2" points="560.61,431 29.27,431 34.68,410.9 566.02,410.9 		"/>
		<polygon class="st2" points="197.52,298.52 180.69,348.76 137.23,348.79 154.08,298.53 106.62,298.55 75.39,399.03 211.62,398.98 
			242.86,298.5 		"/>
		<polygon class="st2" points="372.14,398.98 235.91,399.03 267.14,298.55 403.38,298.5 		"/>
		<polygon class="st2" points="246.81,543.34 193.65,543.37 225,442.92 278.16,442.89 		"/>
		<polygon class="st2" points="455.64,442.94 523.77,442.89 491.53,543.32 464.35,543.34 463.93,543.34 455.16,442.94 		"/>
		<polygon class="st2" points="408.68,543.34 355.53,543.37 386.88,442.92 440.03,442.89 		"/>
		<polygon class="st2" points="534.67,398.98 481.52,399.01 512.87,298.58 566.02,298.53 		"/>
		<polygon class="st2" points="465.91,398.96 397.78,399.01 429.79,298.58 464.35,298.55 		"/>
		<line class="st2" x1="464.35" y1="298.55" x2="464.35" y2="298.5"/>
		<line class="st2" x1="464.35" y1="543.34" x2="455.64" y2="442.94"/>
		<polygon class="st2" points="74.6,543.37 91.43,493.13 134.89,493.1 118.04,543.35 165.5,543.34 196.74,442.86 60.5,442.91 
			29.27,543.39 		"/>
	</g>
</g>
</svg>
