<?xml version="1.0" encoding="utf-8"?>
<!-- Generator: Adobe Illustrator 25.4.1, SVG Export Plug-In . SVG Version: 6.00 Build 0)  -->
<svg version="1.1" id="Lager_1" xmlns="http://www.w3.org/2000/svg" xmlns:xlink="http://www.w3.org/1999/xlink" x="0px" y="0px"
	 viewBox="0 0 267.8 554.9" style="enable-background:new 0 0 267.8 554.9;" xml:space="preserve">
<style type="text/css">
	.st0{fill:#F3C933;}
	.st1{fill:#FFFFFF;}
	.st2{fill:none;stroke:#000000;stroke-width:4;stroke-miterlimit:10;}
</style>
<g id="XMLID_00000121985956423073952010000015520750330701451394_">
	<g>
		<polygon class="st0" points="256.5,547.2 156,515.9 156,462.7 256.4,494.1 		"/>
		<polygon class="st1" points="144.1,547.2 124,541.8 124,10.5 144.1,15.9 		"/>
		<polygon class="st0" points="112.1,505 11.7,472.7 11.6,445.6 112.1,436.8 		"/>
		<polygon class="st0" points="256.4,445.6 156,447.1 156,379 256.4,411 		"/>
		<polygon class="st0" points="112.1,436.8 11.6,445.6 11.6,445.1 112.1,436.4 		"/>
		<polygon class="st0" points="112.1,421.2 11.6,389.9 11.6,336.7 112.1,368.1 		"/>
		<polygon class="st0" points="256.5,384.6 156,353.3 156,217.1 256.4,248.3 		"/>
		<polygon class="st0" points="112.1,259.4 11.6,228 11.6,174.8 112.1,206.2 		"/>
		<polygon class="st0" points="256.5,224.1 156,192.8 156,56.6 256.4,87.8 256.5,135.3 206.2,118.4 206.2,161.9 256.5,178.7 		"/>
		<polygon class="st0" points="112.1,177.9 11.6,146.7 11.6,99.2 61.9,116.1 61.9,72.6 11.6,55.8 11.6,10.5 112.1,41.7 		"/>
	</g>
	<g>
		<polygon class="st2" points="124,541.8 124,10.5 144.1,15.9 144.1,547.2 		"/>
		<polygon class="st2" points="256.5,178.7 206.2,161.9 206.2,118.4 256.5,135.3 256.4,87.8 156,56.6 156,192.8 256.5,224.1 		"/>
		<polygon class="st2" points="156,353.3 156,217.1 256.4,248.3 256.5,384.6 		"/>
		<polygon class="st2" points="11.6,228 11.6,174.8 112.1,206.2 112.1,259.4 		"/>
		<polygon class="st2" points="112.1,436.8 112.1,505 11.7,472.7 11.6,445.6 11.6,445.1 112.1,436.4 		"/>
		<polygon class="st2" points="11.6,389.9 11.6,336.7 112.1,368.1 112.1,421.2 		"/>
		<polygon class="st2" points="156,515.9 156,462.7 256.4,494.1 256.5,547.2 		"/>
		<polygon class="st2" points="156,447.1 156,379 256.4,411 256.4,445.6 		"/>
		<line class="st2" x1="256.4" y1="445.6" x2="256.5" y2="445.6"/>
		<line class="st2" x1="11.6" y1="445.6" x2="112.1" y2="436.8"/>
		<polygon class="st2" points="11.6,55.8 61.9,72.6 61.9,116.1 11.6,99.2 11.6,146.7 112.1,177.9 112.1,41.7 11.6,10.5 		"/>
	</g>
</g>
</svg>
